<svg width="485.000000" height="333.000000" viewBox="0 0 485 333" fill="none" xmlns="http://www.w3.org/2000/svg" xmlns:xlink="http://www.w3.org/1999/xlink">
	<desc>
			Created with Pixso.
	</desc>
	<defs>
		<clipPath id="clip700_26">
			<rect id="undraw_video_game_night_8h8m 1" rx="-0.500000" width="484.000000" height="332.000000" transform="translate(0.500000 0.500000)" fill="white" fill-opacity="0"/>
		</clipPath>
	</defs>
	<rect id="undraw_video_game_night_8h8m 1" rx="-0.500000" width="484.000000" height="332.000000" transform="translate(0.500000 0.500000)" fill="#FFFFFF" fill-opacity="0"/>
	<g clip-path="url(#clip700_26)">
		<path id="Vector" d="M416.37 139.03C423.06 146.07 430.52 147.2 438.75 142.4C435.29 136.85 434.47 130.8 435.39 124.44L419.36 124.44C420.07 130.03 419.88 135.24 416.37 139.03Z" fill="#FFB8B8" fill-opacity="1.000000" fill-rule="nonzero"/>
		<path id="Vector" d="M442.85 323.19L451.43 318.7L455.16 271.17L455.16 246.09L435.39 245.71L440.98 270.79L442.85 323.19Z" fill="#FFB8B8" fill-opacity="1.000000" fill-rule="nonzero"/>
		<path id="Vector" d="M417.99 323.19L409.41 318.7L405.68 271.17L405.68 246.09L425.45 245.71L419.85 270.79L417.99 323.19Z" fill="#FFB8B8" fill-opacity="1.000000" fill-rule="nonzero"/>
		<path id="Vector" d="M404.81 251.33L425.7 249.46L429.05 230.37L433.15 249.08L455.9 247.58C456.4 238.49 455.14 229.13 452.17 219.51L402.2 218.39L404.81 251.33Z" fill="#03183F" fill-opacity="1.000000" fill-rule="nonzero"/>
		<path id="Vector" d="M383.11 179.64L357.99 160.22C357.73 160.02 357.44 159.85 357.13 159.73L353.48 158.24C350.55 157.04 344.96 153.06 347.69 148.96C349.89 145.65 358.29 151.57 359.33 153.77C359.65 154.46 360.19 155.03 360.86 155.39L365.96 158.2C366.09 158.27 366.22 158.33 366.35 158.38L385.78 166.29C386.32 166.51 386.9 166.6 387.48 166.54C388.06 166.49 388.62 166.3 389.11 165.99L392.63 163.75C393.14 163.43 393.71 163.24 394.3 163.19C394.89 163.14 395.49 163.24 396.03 163.47C396.58 163.71 397.06 164.07 397.43 164.54C397.8 165 398.06 165.55 398.18 166.13L399.34 172.03C399.51 172.88 399.37 173.76 398.95 174.52C398.53 175.28 397.86 175.86 397.06 176.17L386.64 180.16C386.05 180.38 385.42 180.45 384.8 180.36C384.19 180.27 383.6 180.02 383.11 179.64Z" fill="#FFB8B8" fill-opacity="1.000000" fill-rule="nonzero"/>
		<path id="Vector" d="M387.77 165.49C394.73 163.62 394 173.37 399.3 178.17L409.74 169.9L403.69 140.53C402.07 141 400.58 141.83 399.34 142.98C398.09 144.12 397.13 145.54 396.53 147.12L387.77 165.49Z" fill="#9C0332" fill-opacity="1.000000" fill-rule="nonzero"/>
		<path id="Vector" d="M400.71 220.26L453.29 220.26C444.78 197.24 445.61 173.57 452.86 149.45C452.98 149.04 452.96 148.61 452.8 148.23C452.63 147.84 452.34 147.52 451.98 147.33L436.88 139.41C430.96 143.28 424.59 142.09 417.86 136.79L401.46 141.28C405.92 168.21 406.05 194.58 400.71 220.26Z" fill="#9C0332" fill-opacity="1.000000" fill-rule="nonzero"/>
		<path id="Vector" d="M413.86 331.99L391.95 332.92C390.99 332.96 390.06 332.64 389.32 332.03C388.58 331.42 388.1 330.56 387.96 329.61C387.81 328.66 388.03 327.68 388.57 326.88C389.11 326.07 389.92 325.5 390.86 325.27L394.58 324.35L409.19 315.85C411.35 318.1 414.33 320.01 417.97 321.63L418.02 327.6C418.02 328.73 417.59 329.82 416.82 330.64C416.04 331.45 414.98 331.94 413.86 331.99Z" fill="#03183F" fill-opacity="1.000000" fill-rule="nonzero"/>
		<path id="Vector" d="M484.78 333L0.17 333L0.17 331.79L485 331.79L484.78 333Z" fill="#3F3D56" fill-opacity="0.400000" fill-rule="nonzero"/>
		<path id="Vector" d="M446.8 331.65L468.71 332.58C469.66 332.63 470.6 332.31 471.34 331.7C472.07 331.09 472.56 330.23 472.7 329.28C472.84 328.32 472.62 327.35 472.09 326.54C471.55 325.74 470.73 325.16 469.79 324.93L466.08 324.02L451.47 315.52C449.31 317.77 446.33 319.67 442.68 321.29L442.64 327.27C442.63 328.4 443.06 329.48 443.84 330.3C444.61 331.12 445.67 331.6 446.8 331.65Z" fill="#03183F" fill-opacity="1.000000" fill-rule="nonzero"/>
		<path id="Vector" d="M437.63 119.2C437.63 125.81 432.29 131.17 425.7 131.17C419.1 131.17 413.76 125.81 413.76 119.2C413.76 112.58 419.1 107.22 425.7 107.22C432.29 107.22 437.63 112.58 437.63 119.2Z" fill="#FFB8B8" fill-opacity="1.000000" fill-rule="evenodd"/>
		<path id="Vector" d="M444.34 216.52L440.4 224.21C440.05 224.89 439.85 225.64 439.81 226.4C439.77 227.16 439.89 227.92 440.16 228.64C440.44 229.35 440.86 229.99 441.4 230.53C441.94 231.07 442.59 231.48 443.3 231.75C444.05 232.04 444.86 232.15 445.66 232.08C446.47 232.01 447.24 231.76 447.93 231.35C448.63 230.93 449.22 230.37 449.67 229.7C450.12 229.03 450.41 228.27 450.53 227.47L452.17 216.14L458.14 187.7L457.77 173.47L445.83 173.47C449.9 184.05 447.88 199.66 444.34 216.52Z" fill="#FFB8B8" fill-opacity="1.000000" fill-rule="nonzero"/>
		<path id="Vector" d="M443.97 174.97L460 174.97L457.68 157.32C457.36 154.92 456.45 152.65 455.04 150.7C453.62 148.75 451.74 147.18 449.56 146.15L443.97 174.97Z" fill="#9C0332" fill-opacity="1.000000" fill-rule="nonzero"/>
		<path id="Vector" d="M438.38 112.6C438.62 111 438.52 109.37 438.09 107.81C437.66 106.25 436.9 104.8 435.87 103.55C433.84 101.14 430.43 99.16 424.76 100.09C412.41 102.13 408.85 112.45 410.06 115.05C411.27 117.64 414.98 123.66 414.98 123.66C414.98 123.66 412.26 117.7 415.21 116.49C418.17 115.28 429.6 110.5 433.59 112.65C434.72 113.22 435.68 114.08 436.37 115.14C437.06 116.21 437.46 117.43 437.53 118.7L438.38 112.6Z" fill="#03183F" fill-opacity="1.000000" fill-rule="nonzero"/>
		<path id="Vector" d="M234.13 62.75L229.34 65.19C223.81 54.27 216.49 44.36 207.68 35.88C164.42 -5.86 95.39 -4.49 53.81 38.93C12.22 82.34 13.58 151.63 56.84 193.37C65.07 201.33 74.5 207.94 84.79 212.95L82.44 217.81C66.14 209.87 51.96 198.14 41.06 183.61C30.17 169.08 22.88 152.15 19.79 134.23C16.7 116.3 17.91 97.9 23.3 80.54C28.7 63.18 38.14 47.35 50.84 34.38C63.53 21.4 79.12 11.64 96.32 5.91C113.51 0.17 131.82 -1.37 149.73 1.4C167.64 4.17 184.64 11.18 199.31 21.85C213.99 32.52 225.92 46.54 234.13 62.75Z" fill="#E6E6E6" fill-opacity="1.000000" fill-rule="nonzero"/>
		<path id="Vector" d="M71.81 163.22C64.76 170.58 60.9 180.47 61.1 190.68C61.3 200.9 65.54 210.62 72.88 217.71C80.22 224.79 90.07 228.66 100.25 228.46C110.43 228.25 120.11 224 127.17 216.63L133.78 209.73L78.42 156.32L71.81 163.22Z" fill="#E6E6E6" fill-opacity="1.000000" fill-rule="nonzero"/>
		<path id="Vector" d="M74.71 152.39C73.14 154.04 72.29 156.24 72.33 158.52C72.37 160.8 73.32 162.96 74.95 164.54L125.73 213.54C127.36 215.12 129.56 215.98 131.83 215.93C134.1 215.89 136.25 214.94 137.83 213.3C139.4 211.66 140.26 209.45 140.22 207.17C140.17 204.9 139.23 202.73 137.59 201.15L86.82 152.16C85.18 150.58 82.98 149.72 80.72 149.76C78.45 149.81 76.29 150.75 74.71 152.39Z" fill="#03183F" fill-opacity="1.000000" fill-rule="nonzero"/>
		<path id="Vector" d="M227 112.41L233.61 105.51C240.66 98.14 244.52 88.26 244.32 78.04C244.11 67.82 239.88 58.1 232.54 51.02C228.9 47.51 224.61 44.75 219.92 42.91C215.22 41.07 210.21 40.17 205.17 40.27C194.99 40.47 185.31 44.72 178.25 52.09L171.64 58.99L227 112.41Z" fill="#E6E6E6" fill-opacity="1.000000" fill-rule="nonzero"/>
		<path id="Vector" d="M167.59 55.42C166.02 57.07 165.16 59.27 165.21 61.55C165.25 63.83 166.2 65.99 167.83 67.57L218.6 116.57C220.24 118.14 222.43 119 224.7 118.96C226.97 118.91 229.13 117.96 230.7 116.32C232.27 114.68 233.13 112.48 233.09 110.2C233.04 107.93 232.1 105.76 230.47 104.18L179.69 55.19C178.06 53.61 175.86 52.75 173.59 52.79C171.32 52.84 169.17 53.78 167.59 55.42Z" fill="#03183F" fill-opacity="1.000000" fill-rule="nonzero"/>
		<path id="Vector" d="M189.01 168.65L189.01 164.67C189.01 164.67 206.32 154.9 220.38 164.67L220.38 168.29L189.01 168.65Z" fill="#03183F" fill-opacity="1.000000" fill-rule="nonzero"/>
		<path id="Vector" d="M346.56 168.65L346.56 164.67C346.56 164.67 363.87 154.9 377.93 164.67L377.93 168.29L346.56 168.65Z" fill="#03183F" fill-opacity="1.000000" fill-rule="nonzero"/>
		<path id="Vector" d="M240.93 168.29L223.98 168.29C223.98 168.29 219.66 163.22 205.23 163.58C190.81 163.94 187.93 168.29 187.93 168.29C187.93 168.29 173.69 177.88 170.44 189.82C170.44 189.82 152.96 242.47 152.6 283.73C152.24 324.98 168.1 330.77 176.39 331.86C184.68 332.94 199.47 331.5 213.89 294.95L220.02 273.59C220.02 273.59 221.1 260.93 234.08 268.89C247.06 276.85 258.59 264.55 258.59 264.55L307.27 264.55C307.27 264.55 323.49 274.68 338.27 266.72C338.27 266.72 344.04 259.12 349.45 284.81C349.45 284.81 366.03 337.65 391.63 332.22C417.23 326.79 414.35 282.64 414.35 282.64C414.35 282.64 410.92 215.15 396.86 191.27C396.86 191.27 383.34 166.48 374.33 165.39C374.33 165.39 354.86 161.77 347.29 165.03L342.96 168.65L240.93 168.29Z" fill="#E6E6E6" fill-opacity="1.000000" fill-rule="nonzero"/>
		<path id="Vector" d="M233 203.75C233 221.14 218.95 235.24 201.63 235.24C184.31 235.24 170.26 221.14 170.26 203.75C170.26 186.36 184.31 172.27 201.63 172.27C218.95 172.27 233 186.36 233 203.75Z" fill="#03183F" fill-opacity="1.000000" fill-rule="evenodd"/>
		<path id="Vector" d="M396.68 203.75C396.68 221.14 382.64 235.24 365.31 235.24C347.99 235.24 333.95 221.14 333.95 203.75C333.95 186.36 347.99 172.27 365.31 172.27C382.64 172.27 396.68 186.36 396.68 203.75Z" fill="#03183F" fill-opacity="1.000000" fill-rule="evenodd"/>
		<path id="Vector" d="M207.09 196.73L202.91 200.44C202.56 200.76 202.1 200.93 201.63 200.93C201.16 200.93 200.7 200.76 200.35 200.44L196.16 196.73C195.95 196.55 195.79 196.33 195.68 196.08C195.56 195.83 195.5 195.56 195.5 195.28L195.5 185.07C195.5 184.55 195.71 184.06 196.07 183.69C196.44 183.33 196.93 183.12 197.44 183.12L205.83 183.12C206.34 183.12 206.83 183.33 207.2 183.69C207.56 184.05 207.76 184.55 207.77 185.06L207.77 195.28C207.76 195.55 207.7 195.83 207.59 196.08C207.47 196.33 207.3 196.55 207.09 196.73Z" fill="#E6E6E6" fill-opacity="1.000000" fill-rule="nonzero"/>
		<path id="Vector" d="M207.09 210.77L202.91 207.06C202.56 206.75 202.1 206.57 201.63 206.57C201.16 206.57 200.7 206.75 200.35 207.06L196.16 210.77C195.95 210.95 195.79 211.18 195.68 211.43C195.56 211.67 195.5 211.95 195.5 212.22L195.5 222.42C195.5 222.94 195.71 223.43 196.07 223.8C196.43 224.16 196.92 224.37 197.44 224.37L205.83 224.37C206.34 224.37 206.83 224.17 207.2 223.8C207.56 223.44 207.76 222.95 207.77 222.43L207.77 212.22C207.76 211.95 207.7 211.67 207.59 211.42C207.47 211.17 207.3 210.95 207.09 210.77Z" fill="#E6E6E6" fill-opacity="1.000000" fill-rule="nonzero"/>
		<path id="Vector" d="M194.64 209.24L198.34 205.04C198.65 204.68 198.82 204.23 198.82 203.75C198.82 203.28 198.65 202.82 198.34 202.47L194.64 198.26C194.46 198.06 194.24 197.89 193.99 197.78C193.74 197.66 193.47 197.6 193.2 197.6L183.03 197.6C182.51 197.6 182.02 197.81 181.66 198.17C181.3 198.54 181.09 199.03 181.09 199.55L181.09 207.96C181.09 208.48 181.29 208.97 181.66 209.34C182.02 209.7 182.51 209.91 183.02 209.91L193.2 209.91C193.47 209.91 193.74 209.85 193.99 209.73C194.24 209.62 194.46 209.45 194.64 209.24Z" fill="#E6E6E6" fill-opacity="1.000000" fill-rule="nonzero"/>
		<path id="Vector" d="M208.62 209.24L204.93 205.04C204.62 204.68 204.45 204.22 204.45 203.75C204.45 203.28 204.62 202.82 204.93 202.46L208.63 198.26C208.81 198.05 209.03 197.89 209.28 197.77C209.53 197.66 209.8 197.6 210.07 197.6L220.24 197.6C220.75 197.6 221.25 197.8 221.61 198.17C221.97 198.53 222.18 199.02 222.18 199.54L222.18 207.96C222.18 208.48 221.98 208.97 221.61 209.34C221.25 209.7 220.76 209.91 220.25 209.91L210.08 209.91C209.8 209.91 209.53 209.85 209.28 209.73C209.03 209.62 208.8 209.45 208.62 209.24Z" fill="#E6E6E6" fill-opacity="1.000000" fill-rule="nonzero"/>
		<path id="Vector" d="M266.89 238.13C266.89 250.72 256.72 260.93 244.17 260.93C231.63 260.93 221.46 250.72 221.46 238.13C221.46 225.54 231.63 215.33 244.17 215.33C256.72 215.33 266.89 225.54 266.89 238.13Z" fill="#03183F" fill-opacity="1.000000" fill-rule="evenodd"/>
		<path id="Vector" d="M345.48 238.13C345.48 250.72 335.31 260.93 322.77 260.93C310.22 260.93 300.06 250.72 300.06 238.13C300.06 225.54 310.22 215.33 322.77 215.33C335.31 215.33 345.48 225.54 345.48 238.13Z" fill="#03183F" fill-opacity="1.000000" fill-rule="evenodd"/>
		<path id="Vector" d="M259.31 238.13C259.31 246.52 252.54 253.33 244.17 253.33C235.81 253.33 229.03 246.52 229.03 238.13C229.03 229.74 235.81 222.93 244.17 222.93C252.54 222.93 259.31 229.74 259.31 238.13Z" fill="#E6E6E6" fill-opacity="1.000000" fill-rule="evenodd"/>
		<path id="Vector" d="M244.17 248.62C242.1 248.62 240.08 248.01 238.36 246.86C236.64 245.7 235.3 244.06 234.51 242.15C233.72 240.23 233.51 238.12 233.92 236.08C234.32 234.05 235.32 232.18 236.78 230.71C238.24 229.24 240.1 228.24 242.13 227.84C244.16 227.43 246.26 227.64 248.17 228.43C250.08 229.23 251.72 230.57 252.87 232.3C254.01 234.03 254.63 236.05 254.63 238.13C254.62 240.91 253.52 243.58 251.56 245.55C249.6 247.51 246.94 248.62 244.17 248.62ZM244.17 228.36C242.25 228.36 240.36 228.93 238.76 230.01C237.16 231.08 235.92 232.61 235.18 234.39C234.44 236.18 234.25 238.14 234.62 240.04C235 241.93 235.93 243.67 237.29 245.04C238.65 246.41 240.38 247.34 242.27 247.71C244.16 248.09 246.12 247.9 247.9 247.16C249.68 246.42 251.2 245.17 252.27 243.56C253.34 241.95 253.91 240.06 253.91 238.13C253.9 235.54 252.88 233.06 251.05 231.22C249.23 229.39 246.75 228.36 244.17 228.36Z" fill="#03183F" fill-opacity="1.000000" fill-rule="nonzero"/>
		<path id="Vector" d="M337.91 238.13C337.91 246.52 331.13 253.33 322.77 253.33C314.41 253.33 307.63 246.52 307.63 238.13C307.63 229.74 314.41 222.93 322.77 222.93C331.13 222.93 337.91 229.74 337.91 238.13Z" fill="#E6E6E6" fill-opacity="1.000000" fill-rule="evenodd"/>
		<path id="Vector" d="M322.77 248.62C320.7 248.62 318.68 248.01 316.96 246.86C315.24 245.7 313.9 244.06 313.11 242.15C312.32 240.23 312.11 238.12 312.51 236.08C312.92 234.05 313.91 232.18 315.38 230.71C316.84 229.24 318.7 228.24 320.73 227.84C322.76 227.43 324.86 227.64 326.77 228.43C328.68 229.23 330.31 230.57 331.46 232.3C332.61 234.03 333.22 236.05 333.22 238.13C333.22 240.91 332.12 243.58 330.16 245.55C328.2 247.51 325.54 248.62 322.77 248.62ZM322.77 228.36C320.84 228.36 318.96 228.93 317.36 230.01C315.76 231.08 314.51 232.61 313.78 234.39C313.04 236.18 312.85 238.14 313.22 240.04C313.6 241.93 314.52 243.67 315.89 245.04C317.25 246.41 318.98 247.34 320.87 247.71C322.76 248.09 324.72 247.9 326.49 247.16C328.27 246.42 329.79 245.17 330.86 243.56C331.93 241.95 332.5 240.06 332.5 238.13C332.5 235.54 331.47 233.06 329.65 231.22C327.82 229.39 325.35 228.36 322.77 228.36Z" fill="#03183F" fill-opacity="1.000000" fill-rule="nonzero"/>
		<path id="Vector" d="M290.68 240.66C290.68 244.26 287.78 247.18 284.19 247.18C280.61 247.18 277.7 244.26 277.7 240.66C277.7 237.07 280.61 234.15 284.19 234.15C287.78 234.15 290.68 237.07 290.68 240.66Z" fill="#03183F" fill-opacity="1.000000" fill-rule="evenodd"/>
		<path id="Vector" d="M275.69 218.92C275.69 219.71 275.06 220.34 274.27 220.34C273.49 220.34 272.86 219.71 272.86 218.92C272.86 218.14 273.49 217.5 274.27 217.5C275.06 217.5 275.69 218.14 275.69 218.92Z" fill="#03183F" fill-opacity="1.000000" fill-rule="evenodd"/>
		<path id="Vector" d="M281 218.92C281 219.71 280.36 220.34 279.58 220.34C278.8 220.34 278.16 219.71 278.16 218.92C278.16 218.14 278.8 217.5 279.58 217.5C280.36 217.5 281 218.14 281 218.92Z" fill="#03183F" fill-opacity="1.000000" fill-rule="evenodd"/>
		<path id="Vector" d="M280.29 225.67C280.29 226.46 279.66 227.09 278.87 227.09C278.09 227.09 277.46 226.46 277.46 225.67C277.46 224.89 278.09 224.25 278.87 224.25C279.66 224.25 280.29 224.89 280.29 225.67Z" fill="#03183F" fill-opacity="1.000000" fill-rule="evenodd"/>
		<path id="Vector" d="M285.27 225.83C285.27 226.63 284.63 227.27 283.83 227.27C283.03 227.27 282.39 226.63 282.39 225.83C282.39 225.03 283.03 224.38 283.83 224.38C284.63 224.38 285.27 225.03 285.27 225.83Z" fill="#03183F" fill-opacity="1.000000" fill-rule="evenodd"/>
		<path id="Vector" d="M290.2 225.67C290.2 226.46 289.56 227.09 288.78 227.09C288 227.09 287.36 226.46 287.36 225.67C287.36 224.89 288 224.25 288.78 224.25C289.56 224.25 290.2 224.89 290.2 225.67Z" fill="#03183F" fill-opacity="1.000000" fill-rule="evenodd"/>
		<path id="Vector" d="M278.17 222.48C278.17 223.26 277.53 223.9 276.75 223.9C275.97 223.9 275.33 223.26 275.33 222.48C275.33 221.69 275.97 221.05 276.75 221.05C277.53 221.05 278.17 221.69 278.17 222.48Z" fill="#03183F" fill-opacity="1.000000" fill-rule="evenodd"/>
		<path id="Vector" d="M282.75 222.57C282.75 223.37 282.1 224.02 281.31 224.02C280.51 224.02 279.87 223.37 279.87 222.57C279.87 221.77 280.51 221.12 281.31 221.12C282.1 221.12 282.75 221.77 282.75 222.57Z" fill="#03183F" fill-opacity="1.000000" fill-rule="evenodd"/>
		<path id="Vector" d="M287.44 222.57C287.44 223.37 286.79 224.02 285.99 224.02C285.2 224.02 284.55 223.37 284.55 222.57C284.55 221.77 285.2 221.12 285.99 221.12C286.79 221.12 287.44 221.77 287.44 222.57Z" fill="#03183F" fill-opacity="1.000000" fill-rule="evenodd"/>
		<path id="Vector" d="M292.32 222.48C292.32 223.26 291.69 223.9 290.9 223.9C290.12 223.9 289.49 223.26 289.49 222.48C289.49 221.69 290.12 221.05 290.9 221.05C291.69 221.05 292.32 221.69 292.32 222.48Z" fill="#03183F" fill-opacity="1.000000" fill-rule="evenodd"/>
		<path id="Vector" d="M285.27 218.95C285.27 219.75 284.63 220.4 283.83 220.4C283.03 220.4 282.39 219.75 282.39 218.95C282.39 218.15 283.03 217.5 283.83 217.5C284.63 217.5 285.27 218.15 285.27 218.95Z" fill="#03183F" fill-opacity="1.000000" fill-rule="evenodd"/>
		<path id="Vector" d="M290.32 218.95C290.32 219.75 289.68 220.4 288.88 220.4C288.08 220.4 287.44 219.75 287.44 218.95C287.44 218.15 288.08 217.5 288.88 217.5C289.68 217.5 290.32 218.15 290.32 218.95Z" fill="#03183F" fill-opacity="1.000000" fill-rule="evenodd"/>
		<path id="Vector" d="M294.45 218.92C294.45 219.71 293.81 220.34 293.03 220.34C292.25 220.34 291.61 219.71 291.61 218.92C291.61 218.14 292.25 217.5 293.03 217.5C293.81 217.5 294.45 218.14 294.45 218.92Z" fill="#03183F" fill-opacity="1.000000" fill-rule="evenodd"/>
		<path id="Vector" d="M230.29 171.37C229.62 171.37 228.99 171.64 228.51 172.11C228.04 172.58 227.78 173.23 227.78 173.9L227.78 181.5C227.78 182.17 228.04 182.81 228.51 183.28C228.99 183.75 229.62 184.02 230.29 184.02L232.09 184.02C232.76 184.02 233.4 183.75 233.87 183.28C234.34 182.81 234.61 182.17 234.61 181.5L234.61 173.9C234.61 173.23 234.34 172.58 233.87 172.11C233.4 171.64 232.76 171.37 232.09 171.37L230.29 171.37Z" fill="#03183F" fill-opacity="1.000000" fill-rule="nonzero"/>
		<path id="Vector" d="M335.57 171.37C334.9 171.37 334.26 171.64 333.79 172.11C333.32 172.58 333.05 173.23 333.05 173.9L333.05 181.5C333.05 182.17 333.32 182.81 333.79 183.28C334.26 183.75 334.9 184.02 335.57 184.02L337.37 184.02C338.04 184.02 338.68 183.75 339.15 183.28C339.62 182.81 339.89 182.17 339.89 181.5L339.89 173.9C339.89 173.23 339.62 172.58 339.15 172.11C338.68 171.64 338.04 171.37 337.37 171.37L335.57 171.37Z" fill="#03183F" fill-opacity="1.000000" fill-rule="nonzero"/>
		<path id="Vector" d="M374.33 184.57C374.33 189.37 370.45 193.26 365.67 193.26C360.89 193.26 357.02 189.37 357.02 184.57C357.02 179.77 360.89 175.89 365.67 175.89C370.45 175.89 374.33 179.77 374.33 184.57Z" fill="#E6E6E6" fill-opacity="1.000000" fill-rule="evenodd"/>
		<path id="Vector" d="M355.94 203.03C355.94 207.82 352.06 211.71 347.29 211.71C342.51 211.71 338.63 207.82 338.63 203.03C338.63 198.23 342.51 194.34 347.29 194.34C352.06 194.34 355.94 198.23 355.94 203.03Z" fill="#E6E6E6" fill-opacity="1.000000" fill-rule="evenodd"/>
		<path id="Vector" d="M393.43 201.94C393.43 206.74 389.56 210.63 384.78 210.63C380 210.63 376.13 206.74 376.13 201.94C376.13 197.15 380 193.26 384.78 193.26C389.56 193.26 393.43 197.15 393.43 201.94Z" fill="#E6E6E6" fill-opacity="1.000000" fill-rule="evenodd"/>
		<path id="Vector" d="M375.77 221.12C375.77 225.92 371.89 229.81 367.12 229.81C362.34 229.81 358.46 225.92 358.46 221.12C358.46 216.33 362.34 212.44 367.12 212.44C371.89 212.44 375.77 216.33 375.77 221.12Z" fill="#E6E6E6" fill-opacity="1.000000" fill-rule="evenodd"/>
		<path id="Vector" d="M246.61 166.3C244.67 166.31 242.82 167.08 241.45 168.45C240.08 169.82 239.32 171.68 239.31 173.62L239.31 206.01C239.32 207.95 240.08 209.81 241.45 211.19C242.82 212.56 244.67 213.33 246.61 213.33L320.7 213.33C322.63 213.33 324.48 212.56 325.85 211.19C327.22 209.81 327.99 207.95 327.99 206.01L327.99 173.62C327.99 171.68 327.22 169.82 325.85 168.45C324.48 167.08 322.63 166.31 320.7 166.3L246.61 166.3Z" fill="#03183F" fill-opacity="1.000000" fill-rule="nonzero"/>
		<path id="Vector" d="M371.55 188.55L359.82 188.55L365.48 178.81L371.55 188.55ZM361.07 187.83L370.25 187.83L365.5 180.21L361.07 187.83Z" fill="#03183F" fill-opacity="1.000000" fill-rule="nonzero"/>
		<path id="Vector" d="M352.15 207.37L342.42 207.37L342.42 198.69L352.15 198.69L352.15 207.37ZM343.14 206.65L351.43 206.65L351.43 199.41L343.14 199.41L343.14 206.65Z" fill="#03183F" fill-opacity="1.000000" fill-rule="nonzero"/>
		<path id="Vector" d="M384.78 207.37C383.71 207.37 382.67 207.05 381.78 206.46C380.89 205.86 380.19 205.01 379.79 204.02C379.38 203.03 379.27 201.94 379.48 200.88C379.69 199.83 380.2 198.86 380.96 198.1C381.71 197.34 382.68 196.83 383.73 196.62C384.78 196.41 385.86 196.52 386.85 196.93C387.84 197.34 388.68 198.03 389.28 198.93C389.87 199.82 390.19 200.87 390.19 201.94C390.19 203.38 389.62 204.76 388.6 205.78C387.59 206.8 386.22 207.37 384.78 207.37ZM384.78 197.24C383.85 197.24 382.95 197.51 382.18 198.03C381.41 198.55 380.81 199.28 380.45 200.14C380.1 201 380 201.95 380.18 202.86C380.37 203.77 380.81 204.61 381.47 205.27C382.12 205.93 382.96 206.37 383.87 206.56C384.78 206.74 385.72 206.64 386.58 206.29C387.43 205.93 388.16 205.33 388.68 204.56C389.19 203.78 389.47 202.87 389.47 201.94C389.47 200.69 388.97 199.5 388.09 198.62C387.22 197.74 386.02 197.24 384.78 197.24Z" fill="#03183F" fill-opacity="1.000000" fill-rule="nonzero"/>
		<path id="Vector" d="M362.71 217.31L363.22 216.79L371.34 224.94L370.83 225.45L362.71 217.31Z" fill="#03183F" fill-opacity="1.000000" fill-rule="evenodd"/>
		<path id="Vector" d="M362.72 224.75L371.01 216.79L371.51 217.31L363.22 225.27L362.72 224.75Z" fill="#03183F" fill-opacity="1.000000" fill-rule="evenodd"/>
		<path id="Vector" d="M76.63 83.61C56.95 89.06 35.39 93.16 27.67 86.8C31.9 79.73 34.34 72.77 34.54 65.93C34.59 62.8 35.85 59.81 38.06 57.6C39.52 56.19 41.29 55.12 43.22 54.49C45.16 53.86 47.21 53.68 49.22 53.96L54.33 54.68C54.5 54.71 54.67 54.73 54.85 54.77C57.3 55.23 59.54 56.46 61.27 58.27C62.99 60.08 64.1 62.39 64.45 64.87C65.53 72.29 69.15 78.71 76.63 83.61Z" fill="#03183F" fill-opacity="1.000000" fill-rule="nonzero"/>
		<path id="Vector" d="M95.62 153.96L103.28 155.55C103.86 155.67 104.41 155.92 104.89 156.28C105.36 156.64 105.75 157.1 106.03 157.63C106.3 158.16 106.46 158.75 106.48 159.35C106.5 159.95 106.39 160.54 106.15 161.09C105.93 161.63 105.59 162.1 105.16 162.49C104.73 162.88 104.22 163.17 103.68 163.34C103.13 163.52 102.54 163.57 101.97 163.5C101.4 163.43 100.85 163.24 100.36 162.93L88.65 155.71L68.77 108.79L79.07 105.8L95.62 153.96Z" fill="#A0616A" fill-opacity="1.000000" fill-rule="nonzero"/>
		<path id="Vector" d="M41.11 215.53L35.31 217.22L30.92 208.12L35.38 205.79L41.11 215.53Z" fill="#A0616A" fill-opacity="1.000000" fill-rule="nonzero"/>
		<path id="Vector" d="M38.16 254.48L31.05 252.59L32.16 240.33L38.28 240.71L38.16 254.48Z" fill="#A0616A" fill-opacity="1.000000" fill-rule="nonzero"/>
		<path id="Vector" d="M38.9 207.03L31.37 212L2.41 179.12C1.78 178.41 1.32 177.56 1.05 176.65C0.79 175.73 0.72 174.77 0.87 173.83C1.01 172.89 1.36 172 1.89 171.21C2.42 170.42 3.12 169.75 3.94 169.27L40.01 147.63L45.54 163.56L26.75 181.26L38.9 207.03Z" fill="#03183F" fill-opacity="1.000000" fill-rule="nonzero"/>
		<path id="Vector" d="M45.24 224.24C45.22 224.26 45.21 224.29 45.19 224.31C44.71 227.14 43.86 229.72 41.97 231.59C41.41 232.85 40.41 233.87 39.15 234.44C37.89 235.01 36.47 235.1 35.15 234.68C33.91 234.29 32.84 233.47 32.13 232.38C31.42 231.28 31.11 229.97 31.26 228.68L32.66 216.05C36.04 215.27 38.61 213.35 39.92 209.6L43.2 211.84C44.17 212.5 44.99 213.35 45.63 214.34C46.26 215.33 46.68 216.44 46.88 217.6C47.07 218.76 47.02 219.94 46.74 221.09C46.46 222.23 45.95 223.3 45.24 224.24Z" fill="#03183F" fill-opacity="1.000000" fill-rule="nonzero"/>
		<path id="Vector" d="M60.4 69.27C60.4 75.7 55.21 80.91 48.81 80.91C42.41 80.91 37.22 75.7 37.22 69.27C37.22 62.85 42.41 57.64 48.81 57.64C55.21 57.64 60.4 62.85 60.4 69.27Z" fill="#A0616A" fill-opacity="1.000000" fill-rule="evenodd"/>
		<path id="Vector" d="M58.85 87.87L40.58 103.06L39.16 96.81L42.35 91.93C43.23 87.14 42.66 81.86 41.14 76.26L53.06 76.27C53.57 80.8 55.33 84.75 58.85 87.87Z" fill="#A0616A" fill-opacity="1.000000" fill-rule="nonzero"/>
		<path id="Vector" d="M63.99 127.71L39.33 135.25L37.41 126.45C32.79 120.22 30.78 114.53 33.8 109.89L32.28 102.91C36.64 99.46 40.08 95.93 41.96 92.27L57.14 86.32L68.3 87L71.59 98.09L63.99 127.71Z" fill="#9C0332" fill-opacity="1.000000" fill-rule="nonzero"/>
		<path id="Vector" d="M81.52 107.04C76.26 106.98 71.12 108.57 66.79 111.57L68.3 87C69.83 87.21 71.27 87.81 72.5 88.75C73.73 89.69 74.69 90.93 75.29 92.35L81.52 107.04Z" fill="#9C0332" fill-opacity="1.000000" fill-rule="nonzero"/>
		<path id="Vector" d="M38.83 243.64L31 241.71L32.15 174.94L42.66 163.38L40.31 148.73L38.79 132.32L64.47 125.93C73.15 141.75 78.39 156.13 70.73 165.12L38.83 243.64Z" fill="#03183F" fill-opacity="1.000000" fill-rule="nonzero"/>
		<path id="Vector" d="M37.03 266.19C36.99 266.2 36.96 266.22 36.92 266.23C34.65 268.88 32.15 271.04 29.01 271.8C27.63 272.77 25.95 273.2 24.28 273C22.61 272.8 21.07 271.99 19.95 270.73C18.9 269.53 18.3 268.01 18.24 266.42C18.18 264.83 18.68 263.26 19.64 262L29.02 249.71C33.03 251.02 36.92 250.64 40.63 247.54L42.65 251.95C43.25 253.25 43.58 254.66 43.63 256.1C43.67 257.53 43.42 258.95 42.89 260.29C42.36 261.62 41.57 262.83 40.56 263.84C39.56 264.86 38.35 265.66 37.03 266.19Z" fill="#03183F" fill-opacity="1.000000" fill-rule="nonzero"/>
		<path id="Vector" d="M8.43 161.99L1.55 167.9C0.98 168.39 0.55 169.02 0.28 169.72C0.02 170.43 -0.07 171.19 0.04 171.93C0.15 172.68 0.44 173.39 0.89 173.99C1.34 174.59 1.94 175.07 2.62 175.38C3.65 175.85 4.82 175.9 5.89 175.54C6.96 175.17 7.85 174.41 8.39 173.41L13.35 164.11L36.14 122.37L27.57 120.75L8.43 161.99Z" fill="#A0616A" fill-opacity="1.000000" fill-rule="nonzero"/>
		<path id="Vector" d="M37.52 123.54C33.07 122.19 28.9 121.4 25.66 122.45C26.34 114.03 27.74 106.51 32.28 102.91L38.74 103.67L37.52 123.54Z" fill="#9C0332" fill-opacity="1.000000" fill-rule="nonzero"/>
		<path id="Vector" d="M61.75 66.58L36.96 65.05L37.27 60.07C45.92 54.21 54.18 54.72 62.06 61.6L61.75 66.58Z" fill="#03183F" fill-opacity="1.000000" fill-rule="nonzero"/>
	</g>
</svg>
